<svg xmlns="http://www.w3.org/2000/svg" viewBox="0 0 96 96" role="img" aria-label="Tigrcorn mark">
  <rect width="96" height="96" rx="22" fill="#130d08"/>
  <path d="M48 14c18 10 29 25 29 43 0 16-12 27-29 27S19 73 19 57c0-18 11-33 29-43Z" fill="#fb923c"/>
  <path d="M48 18v64M30 36c9 4 15 10 18 19 3-9 9-15 18-19M27 57h42" stroke="#130d08" stroke-width="7" stroke-linecap="round" stroke-linejoin="round"/>
  <path d="M33 22c9 6 14 14 15 25 1-11 6-19 15-25" stroke="#fff7ed" stroke-width="5" stroke-linecap="round"/>
</svg>
