<svg xmlns="http://www.w3.org/2000/svg" viewBox="0 0 470 96" role="img" aria-label="Tigrcorn">
  <rect width="96" height="96" rx="22" fill="#130d08"/>
  <path d="M48 14c18 10 29 25 29 43 0 16-12 27-29 27S19 73 19 57c0-18 11-33 29-43Z" fill="#fb923c"/>
  <path d="M48 18v64M30 36c9 4 15 10 18 19 3-9 9-15 18-19M27 57h42" stroke="#130d08" stroke-width="7" stroke-linecap="round" stroke-linejoin="round"/>
  <path d="M33 22c9 6 14 14 15 25 1-11 6-19 15-25" stroke="#fff7ed" stroke-width="5" stroke-linecap="round"/>
  <text x="120" y="59" fill="#fff7ed" font-family="Inter, Segoe UI, Arial, sans-serif" font-size="42" font-weight="800">Tigrcorn</text>
  <text x="122" y="80" fill="#d6bda8" font-family="Inter, Segoe UI, Arial, sans-serif" font-size="13" font-weight="700">Protocol-aware ASGI runtime</text>
</svg>
